<svg xmlns="http://www.w3.org/2000/svg" viewBox="0 0 120 24" width="120" height="24">
  <path fill="red" d="M42.967 2c5.523 0 10 4.477 10 10s-4.477 10-10 10c-5.522 0-10-4.477-10-10s4.478-10 10-10m0 2a8 8 0 1 0 0 16 8 8 0 0 0 0-16z"/>
  <path fill="white" d="m39.967 7 2 5-2 5h2l1-2.5 1 2.5h2l-2-5 2-5h-2l-1 2.5-1-2.5zm19.266.726h5.027v.996h-3.844V11.3h3.469v.996h-3.469v4.178h-1.183zm5.982 2.185h1.078v6.563h-1.078Zm0-2.555h1.078v1.366h-1.078Zm3.334 0h1.078v9.118H68.55zm8.947 5.567v.527H72.54q.07 1.113.668 1.7.604.58 1.676.58.621 0 1.201-.153.586-.152 1.16-.457v1.02q-.58.246-1.19.375-.608.129-1.235.129-1.57 0-2.49-.915-.915-.914-.915-2.472 0-1.611.867-2.555.873-.95 2.35-.95 1.324 0 2.092.856.773.85.773 2.315zm-1.078-.317q-.012-.884-.498-1.412-.48-.527-1.277-.527-.903 0-1.447.51-.54.51-.622 1.435zm7.031-2.502v1.02q-.457-.234-.949-.352-.492-.117-1.02-.117-.802 0-1.206.246-.399.246-.399.739 0 .375.287.591.287.211 1.155.405l.369.082q1.148.246 1.629.697.486.445.486 1.248 0 .914-.727 1.447-.72.534-1.986.534-.527 0-1.101-.106-.569-.1-1.202-.305V15.12q.598.31 1.178.469.58.152 1.149.152.761 0 1.171-.258.41-.263.41-.738 0-.44-.298-.674-.293-.234-1.295-.45l-.375-.089q-1.002-.21-1.447-.644-.446-.44-.446-1.201 0-.926.656-1.43.657-.504 1.864-.504.597 0 1.125.088.527.088.972.263zM95.93 8.4v1.248q-.597-.556-1.276-.832-.674-.275-1.436-.275-1.5 0-2.297.92-.797.914-.797 2.648 0 1.729.797 2.649.797.914 2.297.914.762 0 1.436-.275.68-.276 1.277-.833V15.8q-.621.422-1.318.633-.692.21-1.465.21-1.987 0-3.13-1.212-1.142-1.22-1.142-3.323 0-2.109 1.143-3.322 1.142-1.219 3.129-1.219.785 0 1.476.211.698.205 1.307.621zm8.38 0v1.248q-.598-.556-1.278-.832-.673-.275-1.435-.275-1.5 0-2.297.92-.797.914-.797 2.648 0 1.729.797 2.649.797.914 2.297.914.762 0 1.435-.275.68-.276 1.278-.833V15.8q-.621.422-1.319.633-.691.21-1.464.21-1.987 0-3.13-1.212-1.142-1.22-1.142-3.323 0-2.109 1.143-3.322 1.142-1.219 3.129-1.219.785 0 1.476.211.697.205 1.307.621zm7.793 6.827v-2.35h-1.934v-.973h3.106v3.756q-.686.487-1.512.738-.826.247-1.764.247-2.05 0-3.21-1.196-1.155-1.2-1.155-3.34 0-2.144 1.154-3.34 1.16-1.2 3.211-1.2.856 0 1.623.21.774.211 1.424.621v1.26q-.656-.556-1.394-.838-.739-.281-1.553-.281-1.606 0-2.414.897-.803.896-.803 2.671 0 1.77.803 2.666.808.897 2.414.897.627 0 1.119-.106.492-.11.885-.34zM6.5 7.726h7.4v.996h-3.105v7.752h-1.19V8.722H6.5Zm13.951 4.787v3.96h-1.078v-3.925q0-.932-.363-1.395-.364-.463-1.09-.463-.873 0-1.377.557t-.504 1.518v3.709h-1.084V7.356h1.084v3.575q.387-.592.908-.885.528-.293 1.213-.293 1.131 0 1.711.703.58.697.58 2.057zm7.764.41v.527h-4.957q.07 1.113.668 1.7.603.58 1.676.58.62 0 1.2-.153.587-.152 1.16-.457v1.02q-.58.246-1.189.375-.609.129-1.236.129-1.57 0-2.49-.915-.914-.914-.914-2.472 0-1.611.867-2.555.873-.95 2.35-.95 1.324 0 2.091.856.774.85.774 2.315zm-1.078-.317q-.012-.884-.498-1.412-.48-.527-1.278-.527-.902 0-1.447.51-.539.51-.621 1.435z"/>
</svg>